Coordinates
version=1
nRows=5
nColumns=40
inDegrees=yes

Units are S.I. units (second, meters, Newtons, ...)
Angles are in degrees.

endheader
time	pelvis_tilt	pelvis_list	pelvis_rotation	pelvis_tx	pelvis_ty	pelvis_tz	hip_flexion_r	hip_adduction_r	hip_rotation_r	knee_angle_r	knee_angle_r_beta	ankle_angle_r	subtalar_angle_r	mtp_angle_r	hip_flexion_l	hip_adduction_l	hip_rotation_l	knee_angle_l	knee_angle_l_beta	ankle_angle_l	subtalar_angle_l	mtp_angle_l	lumbar_extension	lumbar_bending	lumbar_rotation	arm_flex_r	arm_add_r	arm_rot_r	elbow_flex_r	pro_sup_r	wrist_flex_r	wrist_dev_r	arm_flex_l	arm_add_l	arm_rot_l	elbow_flex_l	pro_sup_l	wrist_flex_l	wrist_dev_l
     12.65000000	     -4.06904508	     -6.76095913	      3.59464489	      1.03342130	      0.93179783	      0.48866531	     11.83993576	      4.98673583	    -20.40492299	     13.42099740	     13.42099740	      8.21173658	      5.12656558	     -2.20651311	     35.41445058	    -14.67298006	      3.70476368	     64.86404417	     64.86404417	      9.37199842	    -18.59037370	     13.40403589	    -12.91141257	      7.40962068	      4.25657716	     21.29810264	    -16.41322974	     -2.26479267	     49.09964458	     45.20868028	      0.00000000	      0.00000000	      7.20682617	     -9.97328592	      1.61688992	     55.51771688	     46.01004552	      0.00000000	      0.00000000
     12.66135714	     -4.08878951	     -6.84289495	      3.50589366	      1.03178622	      0.93196902	      0.48960799	     11.18193696	      5.24072168	    -20.43103393	     13.01654642	     13.01654642	      8.47803895	      5.59577400	     -2.35857714	     36.59502153	    -14.73808673	      3.43250466	     62.62465178	     62.62465178	      9.47129565	    -18.59244856	     13.56586214	    -12.97335945	      7.46733429	      4.14215230	     24.18180373	    -16.24644205	     -2.21239016	     50.75553583	     45.16742394	      0.00000000	      0.00000000	      5.39120343	     -9.94331718	      1.77902405	     53.40334347	     45.97260072	      0.00000000	      0.00000000
     12.67271429	     -4.05969339	     -6.93821089	      3.40987690	      1.03029432	      0.93219371	      0.49050239	     10.42865187	      5.52532638	    -20.42511978	     12.53376098	     12.53376098	      8.67870460	      6.07176366	     -2.46612617	     37.46985332	    -14.79453083	      3.15062815	     60.04451551	     60.04451551	      9.40922250	    -18.52982707	     13.68043980	    -13.06481916	      7.53801560	      4.12443716	     26.98427167	    -16.14114148	     -1.97502467	     52.45438526	     45.11660142	      0.00000000	      0.00000000	      3.80917505	     -9.77925061	      1.83907538	     50.97472155	     45.94375181	      0.00000000	      0.00000000
     12.68407143	     -4.03365701	     -6.99992982	      3.30517862	      1.02878052	      0.93228375	      0.49130775	      9.69353520	      5.76574375	    -20.41248212	     12.06685429	     12.06685429	      8.93748605	      6.52135760	     -2.59031081	     38.14550834	    -14.76302411	      2.89091781	     57.22349065	     57.22349065	      9.28507751	    -18.43707329	     13.78826500	    -13.17916447	      7.57450068	      4.20188456	     29.72098788	    -16.07570867	     -1.63700927	     54.13993379	     45.06241493	      0.00000000	      0.00000000	      2.42554249	     -9.51414405	      1.83632298	     48.37682891	     45.92097027	      0.00000000	      0.00000000
     12.69542857	     -4.08131901	     -7.13696683	      3.19598516	      1.02733884	      0.93212432	      0.49193309	      9.07016605	      6.03494313	    -20.54049945	     11.66224531	     11.66224531	      9.17186492	      7.18352901	     -2.84968633	     38.73121860	    -14.73898458	      2.75161138	     54.18537730	     54.18537730	      8.86987168	    -18.22912509	     13.18232830	    -13.12926813	      7.74232722	      4.72937499	     32.04415765	    -16.76220391	     -0.27955366	     56.04962143	     44.97590737	      0.00000000	      0.00000000	      2.16783243	     -8.62755139	      1.04710564	     43.24334350	     46.00182173	      0.00000000	      0.00000000
